<?xml version="1.0" encoding="iso-8859-1"?>
<!-- Generator: Adobe Illustrator 19.0.0, SVG Export Plug-In . SVG Version: 6.00 Build 0)  -->
<svg version="1.1" id="Capa_1" xmlns="http://www.w3.org/2000/svg" xmlns:xlink="http://www.w3.org/1999/xlink" x="0px" y="0px"
	 viewBox="0 0 512 512" style="enable-background:new 0 0 512 512;" xml:space="preserve">
<path style="fill:#5997C9;" d="M511.988,83.066v192.578c0,17.11-13.875,30.986-30.986,30.986H164.695
	c-17.122,0-30.997-13.875-30.997-30.986V83.066c0-17.122,13.875-30.997,30.997-30.997h316.307
	C498.113,52.069,511.988,65.944,511.988,83.066z"/>
<path style="fill:#467EB7;" d="M512,83.066v192.578c0,17.11-13.875,30.986-30.997,30.986H188.332l254.56-254.561h38.109
	C498.125,52.069,512,65.944,512,83.066z"/>
<g>
	<path style="fill:#3570A0;" d="M398.584,210.437v96.193H164.695c-17.122,0-30.997-13.875-30.997-30.986v-96.205h233.889
		C384.708,179.439,398.584,193.315,398.584,210.437z"/>
	<path style="fill:#3570A0;" d="M398.584,210.437v96.193H188.332l127.19-127.19h52.064
		C384.708,179.439,398.584,193.315,398.584,210.437z"/>
</g>
<path style="fill:#467EB7;" d="M347.3,459.931H30.996C13.877,459.931,0,446.053,0,428.934V236.36
	c0-17.119,13.877-30.996,30.996-30.996h316.303c17.119,0,30.996,13.877,30.996,30.996v192.575
	C378.296,446.053,364.419,459.931,347.3,459.931z"/>
<path style="fill:#5997C9;" d="M378.297,236.367v192.578c0,17.11-13.875,30.986-30.997,30.986H54.628L309.189,205.37h38.109
	C364.422,205.37,378.297,219.245,378.297,236.367z"/>
<path style="fill:#F4B74A;" d="M98.505,297.041H49.848c-6.692,0-12.117-5.425-12.117-12.117v-23.859
	c0-6.692,5.425-12.117,12.117-12.117h48.657c6.692,0,12.117,5.425,12.117,12.117v23.859
	C110.621,291.616,105.196,297.041,98.505,297.041z"/>
<rect x="133.695" y="101.668" style="fill:#4A5660;" width="378.295" height="49.601"/>
<g>
	<polygon style="fill:#525D66;" points="302.819,101.664 253.224,151.26 175.11,151.26 224.705,101.664 	"/>
	<polygon style="fill:#525D66;" points="372.783,101.664 323.198,151.26 290.645,151.26 340.24,101.664 	"/>
</g>
<g>
	<path style="fill:#F4B74A;" d="M37.731,355.225c-4.329,0-7.837-3.509-7.837-7.837v-14.74c0-4.328,3.508-7.837,7.837-7.837
		c4.329,0,7.837,3.509,7.837,7.837v14.74C45.568,351.716,42.059,355.225,37.731,355.225z"/>
	<path style="fill:#F4B74A;" d="M86.74,355.225c-4.329,0-7.837-3.509-7.837-7.837v-14.74c0-4.328,3.508-7.837,7.837-7.837
		s7.837,3.509,7.837,7.837v14.74C94.577,351.716,91.069,355.225,86.74,355.225z"/>
	<path style="fill:#F4B74A;" d="M62.235,355.225c-4.329,0-7.837-3.509-7.837-7.837v-14.74c0-4.328,3.508-7.837,7.837-7.837
		s7.837,3.509,7.837,7.837v14.74C70.072,351.716,66.563,355.225,62.235,355.225z"/>
	<path style="fill:#F4B74A;" d="M111.245,355.225c-4.329,0-7.837-3.509-7.837-7.837v-14.74c0-4.328,3.508-7.837,7.837-7.837
		c4.329,0,7.837,3.509,7.837,7.837v14.74C119.082,351.716,115.574,355.225,111.245,355.225z"/>
	<path style="fill:#F4B74A;" d="M274.884,332.652v14.733c0,4.326-3.511,7.837-7.837,7.837s-7.837-3.511-7.837-7.837v-14.733
		c0-4.336,3.511-7.837,7.837-7.837S274.884,328.316,274.884,332.652z"/>
	<path style="fill:#F4B74A;" d="M323.901,332.652v14.733c0,4.326-3.511,7.837-7.837,7.837c-4.336,0-7.837-3.511-7.837-7.837v-14.733
		c0-4.336,3.5-7.837,7.837-7.837C320.39,324.815,323.901,328.316,323.901,332.652z"/>
	<path style="fill:#F4B74A;" d="M299.387,332.652v14.733c0,4.326-3.5,7.837-7.837,7.837c-4.326,0-7.837-3.511-7.837-7.837v-14.733
		c0-4.336,3.511-7.837,7.837-7.837C295.887,324.815,299.387,328.316,299.387,332.652z"/>
	<path style="fill:#F4B74A;" d="M348.403,332.652v14.733c0,4.326-3.511,7.837-7.837,7.837c-4.326,0-7.837-3.511-7.837-7.837v-14.733
		c0-4.336,3.511-7.837,7.837-7.837S348.403,328.316,348.403,332.652z"/>
	<path style="fill:#F4B74A;" d="M152.39,355.225c-4.329,0-7.837-3.509-7.837-7.837v-14.74c0-4.328,3.508-7.837,7.837-7.837
		c4.329,0,7.837,3.509,7.837,7.837v14.74C160.227,351.716,156.719,355.225,152.39,355.225z"/>
	<path style="fill:#F4B74A;" d="M209.233,332.652v14.733c0,4.326-3.5,7.837-7.837,7.837c-4.326,0-7.837-3.511-7.837-7.837v-14.733
		c0-4.336,3.511-7.837,7.837-7.837C205.733,324.815,209.233,328.316,209.233,332.652z"/>
	<path style="fill:#F4B74A;" d="M184.731,332.652v14.733c0,4.326-3.511,7.837-7.837,7.837c-4.326,0-7.837-3.511-7.837-7.837v-14.733
		c0-4.336,3.511-7.837,7.837-7.837c3.48,0,6.426,2.257,7.45,5.402C184.595,330.98,184.731,331.806,184.731,332.652z"/>
	<path style="fill:#F4B74A;" d="M233.747,332.652v14.733c0,4.326-3.511,7.837-7.837,7.837c-4.336,0-7.837-3.511-7.837-7.837v-14.733
		c0-4.336,3.5-7.837,7.837-7.837C230.236,324.815,233.747,328.316,233.747,332.652z"/>
	<path style="fill:#F4B74A;" d="M80.296,414.589H37.731c-4.329,0-7.837-3.509-7.837-7.837s3.508-7.837,7.837-7.837h42.565
		c4.329,0,7.837,3.509,7.837,7.837S84.625,414.589,80.296,414.589z"/>
	<path style="fill:#F4B74A;" d="M182.066,406.756c0,4.326-3.511,7.837-7.837,7.837H105.36c-1.536,0-2.968-0.439-4.18-1.212
		c-2.194-1.379-3.657-3.835-3.657-6.625c0-4.336,3.511-7.837,7.837-7.837h68.869C178.555,398.92,182.066,402.42,182.066,406.756z"/>
	<path style="fill:#F4B74A;" d="M348.403,278.255c0,4.326-3.511,7.837-7.837,7.837H233.59c-1.463,0-2.842-0.408-4.012-1.108
		c-2.288-1.369-3.824-3.866-3.824-6.729c0-4.326,3.511-7.837,7.837-7.837h106.977C344.893,270.418,348.403,273.929,348.403,278.255z
		"/>
	<path style="fill:#F4B74A;" d="M348.403,248.193c0,4.336-3.511,7.837-7.837,7.837h-76.163c-1.672,0-3.208-0.512-4.472-1.4
		c-2.038-1.411-3.365-3.762-3.365-6.437c0-4.326,3.5-7.837,7.837-7.837h76.163C344.893,240.356,348.403,243.867,348.403,248.193z"/>
</g>
<g>
	<path style="fill:#FFD488;" d="M182.066,406.756c0,4.326-3.511,7.837-7.837,7.837H105.36c-1.536,0-2.968-0.439-4.18-1.212
		l14.461-14.461h58.587C178.555,398.92,182.066,402.42,182.066,406.756z"/>
	<path style="fill:#FFD488;" d="M184.344,330.217c0.251,0.763,0.387,1.588,0.387,2.435v14.733c0,4.326-3.511,7.837-7.837,7.837
		c-4.326,0-7.837-3.511-7.837-7.837v-1.881L184.344,330.217z"/>
	<path style="fill:#FFD488;" d="M209.233,332.652v14.733c0,4.326-3.5,7.837-7.837,7.837c-4.326,0-7.837-3.511-7.837-7.837v-14.733
		c0-4.336,3.511-7.837,7.837-7.837C205.733,324.815,209.233,328.316,209.233,332.652z"/>
	<path style="fill:#FFD488;" d="M233.747,332.652v14.733c0,4.326-3.511,7.837-7.837,7.837c-4.336,0-7.837-3.511-7.837-7.837v-14.733
		c0-4.336,3.5-7.837,7.837-7.837C230.236,324.815,233.747,328.316,233.747,332.652z"/>
	<path style="fill:#FFD488;" d="M274.884,332.652v14.733c0,4.326-3.511,7.837-7.837,7.837s-7.837-3.511-7.837-7.837v-14.733
		c0-4.336,3.511-7.837,7.837-7.837S274.884,328.316,274.884,332.652z"/>
	<path style="fill:#FFD488;" d="M299.387,332.652v14.733c0,4.326-3.5,7.837-7.837,7.837c-4.326,0-7.837-3.511-7.837-7.837v-14.733
		c0-4.336,3.511-7.837,7.837-7.837C295.887,324.815,299.387,328.316,299.387,332.652z"/>
	<path style="fill:#FFD488;" d="M323.901,332.652v14.733c0,4.326-3.511,7.837-7.837,7.837c-4.336,0-7.837-3.511-7.837-7.837v-14.733
		c0-4.336,3.5-7.837,7.837-7.837C320.39,324.815,323.901,328.316,323.901,332.652z"/>
	<path style="fill:#FFD488;" d="M348.403,278.255c0,4.326-3.511,7.837-7.837,7.837H233.59c-1.463,0-2.842-0.408-4.012-1.108
		l14.566-14.566h96.423C344.893,270.418,348.403,273.929,348.403,278.255z"/>
	<path style="fill:#FFD488;" d="M264.404,256.03c-1.672,0-3.208-0.512-4.472-1.4l14.273-14.273h66.361
		c4.326,0,7.837,3.511,7.837,7.837c0,4.336-3.511,7.837-7.837,7.837H264.404z"/>
	<path style="fill:#FFD488;" d="M348.403,332.652v14.733c0,4.326-3.511,7.837-7.837,7.837c-4.326,0-7.837-3.511-7.837-7.837v-14.733
		c0-4.336,3.511-7.837,7.837-7.837S348.403,328.316,348.403,332.652z"/>
</g>
<g>
</g>
<g>
</g>
<g>
</g>
<g>
</g>
<g>
</g>
<g>
</g>
<g>
</g>
<g>
</g>
<g>
</g>
<g>
</g>
<g>
</g>
<g>
</g>
<g>
</g>
<g>
</g>
<g>
</g>
</svg>
