<?xml version="1.0" encoding="UTF-8"?>
<!DOCTYPE svg PUBLIC "-//W3C//DTD SVG 1.1//EN" "http://www.w3.org/Graphics/SVG/1.1/DTD/svg11.dtd">
<!-- Creator: CorelDRAW 2019 (64-Bit) -->
<svg xmlns="http://www.w3.org/2000/svg" xml:space="preserve" width="15px" height="15px" version="1.1" shape-rendering="geometricPrecision" text-rendering="geometricPrecision" image-rendering="optimizeQuality" fill-rule="evenodd" clip-rule="evenodd"
viewBox="0 0 15 15"
 xmlns:xlink="http://www.w3.org/1999/xlink"
 xmlns:xodm="http://www.corel.com/coreldraw/odm/2003">
 <g id="Capa_x0020_1">
  <metadata id="CorelCorpID_0Corel-Layer"/>
  <rect fill="none" x="-0.5" y="0.5" width="15" height="15"/>
  <g id="_2914296642688">
   <g>
    <path fill="#3E5F8C" d="M10.72 2.04c-1,-0.99 -2.32,-1.54 -3.72,-1.54 -1.4,0 -2.72,0.55 -3.71,1.54 -1.84,1.83 -2.07,5.29 -0.5,7.38l4.21 6.08 4.2 -6.07c1.58,-2.1 1.35,-5.56 -0.48,-7.39zm-3.67 5.58c-1.06,0 -1.92,-0.86 -1.92,-1.92 0,-1.05 0.86,-1.91 1.92,-1.91 1.06,0 1.92,0.86 1.92,1.91 0,1.06 -0.86,1.92 -1.92,1.92z" data-original="#000000" data-old_color="#000000"/>
   </g>
  </g>
 </g>
</svg>
