<?xml version="1.0" encoding="UTF-8"?>
<!DOCTYPE svg PUBLIC "-//W3C//DTD SVG 1.1//EN" "http://www.w3.org/Graphics/SVG/1.1/DTD/svg11.dtd">
<!-- Creator: CorelDRAW 2019 (64-Bit) -->
<svg xmlns="http://www.w3.org/2000/svg" xml:space="preserve" width="200px" height="200px" version="1.1" shape-rendering="geometricPrecision" text-rendering="geometricPrecision" image-rendering="optimizeQuality" fill-rule="evenodd" clip-rule="evenodd"
viewBox="0 0 200 200"
 xmlns:xlink="http://www.w3.org/1999/xlink"
 xmlns:xodm="http://www.corel.com/coreldraw/odm/2003">
 <g id="Capa_x0020_1">
  <metadata id="CorelCorpID_0Corel-Layer"/>
  <rect fill="#1A1F71" width="200" height="200"/>
  <g id="_2677274339712">
   <g>
    <path fill="white" fill-rule="nonzero" d="M181 125.33c-4.04,0 -8.09,0 -12.19,0 -0.45,-2.14 -0.93,-4.24 -1.31,-6.35 -0.15,-0.88 -0.43,-1.22 -1.41,-1.21 -4.89,0.06 -9.79,0.05 -14.68,0.01 -0.74,-0.01 -1.03,0.24 -1.26,0.91 -0.67,2.02 -1.41,4.01 -2.16,6 -0.1,0.27 -0.44,0.64 -0.67,0.64 -4.41,0.04 -8.82,0.03 -13.36,0.03 0.83,-1.99 1.61,-3.89 2.41,-5.79 5.68,-13.56 11.37,-27.12 17.05,-40.68 1.23,-2.93 3.08,-4.16 6.26,-4.16 3.53,0 7.07,0 10.7,0 0.36,1.65 0.71,3.28 1.05,4.91 2.8,13.4 5.59,26.8 8.4,40.21 0.35,1.71 0.78,3.41 1.17,5.12 0,0.12 0,0.24 0,0.36zm-15.96 -17.98l0 0c-1.3,-6.23 -2.58,-12.38 -3.86,-18.53 -0.06,-0.01 -0.11,-0.02 -0.16,-0.03 -2.24,6.17 -4.47,12.33 -6.73,18.56 3.65,0 7.14,0 10.75,0z"/>
    <path fill="white" fill-rule="nonzero" d="M127.87 73.82c1.61,0.3 3.23,0.55 4.83,0.92 1.45,0.33 2.88,0.8 4.42,1.24 -0.78,3.64 -1.54,7.2 -2.28,10.68 -2.04,-0.6 -3.99,-1.29 -5.99,-1.73 -2.74,-0.61 -5.55,-0.84 -8.29,-0.07 -1.12,0.31 -2.25,0.9 -3.12,1.66 -1.51,1.29 -1.53,3.14 -0.09,4.49 0.99,0.94 2.17,1.7 3.34,2.41 2.67,1.6 5.47,3 8.06,4.71 3.06,2.02 5.28,4.8 5.75,8.55 0.83,6.64 -1.62,11.86 -7.2,15.56 -3.51,2.33 -7.47,3.37 -11.61,3.75 -5.77,0.54 -11.43,-0.11 -16.94,-1.92 -0.37,-0.12 -0.73,-0.27 -1.09,-0.42 -0.11,-0.04 -0.2,-0.12 -0.37,-0.22 0.78,-3.65 1.56,-7.31 2.36,-11.06 0.94,0.41 1.83,0.82 2.73,1.18 4.31,1.74 8.76,2.53 13.37,1.67 1.2,-0.23 2.42,-0.75 3.44,-1.44 2.21,-1.48 2.42,-4.26 0.41,-5.99 -1.32,-1.15 -2.91,-1.99 -4.42,-2.91 -2.35,-1.43 -4.84,-2.65 -7.07,-4.25 -2.85,-2.06 -4.91,-4.79 -5.3,-8.43 -0.59,-5.45 1.43,-9.88 5.62,-13.32 3.64,-2.99 7.96,-4.32 12.56,-4.88 0.26,-0.03 0.51,-0.11 0.76,-0.18 2.04,0 4.08,0 6.12,0z"/>
    <path fill="white" fill-rule="nonzero" d="M80.45 74.77c-0.69,1.65 -1.34,3.22 -1.99,4.79 -6.28,14.97 -12.57,29.94 -18.82,44.92 -0.3,0.72 -0.66,0.9 -1.38,0.9 -3.96,-0.03 -7.93,-0.05 -11.89,0.01 -0.84,0.01 -1.11,-0.29 -1.3,-1.04 -3.36,-13.09 -6.78,-26.16 -10.1,-39.26 -0.61,-2.4 -1.83,-4.04 -4.11,-5.05 -3.67,-1.61 -7.48,-2.75 -11.36,-3.67 -0.17,-0.04 -0.34,-0.08 -0.5,-0.12 0.02,-1.52 0.02,-1.52 1.46,-1.52 6.93,0 13.87,-0.01 20.8,0 3.29,0 5.66,1.91 6.28,5.16 1.77,9.22 3.49,18.44 5.23,27.66 0.07,0.4 0.16,0.8 0.27,1.37 0.18,-0.34 0.31,-0.53 0.39,-0.74 4.31,-10.89 8.61,-21.78 12.9,-32.68 0.23,-0.59 0.52,-0.8 1.16,-0.79 4.03,0.03 8.05,0.02 12.07,0.02 0.26,0 0.52,0.02 0.89,0.04z"/>
    <path fill="white" fill-rule="nonzero" d="M75.2 125.36c3.62,-16.92 7.21,-33.73 10.82,-50.58 4.38,0 8.72,0 13.14,0 -0.55,2.57 -1.09,5.08 -1.62,7.6 -2.98,13.92 -5.97,27.83 -8.91,41.75 -0.2,0.97 -0.55,1.28 -1.55,1.26 -3.6,-0.07 -7.2,-0.03 -10.8,-0.03 -0.33,0 -0.65,0 -1.08,0z"/>
   </g>
  </g>
 </g>
</svg>
