<?xml version="1.0" encoding="UTF-8"?>
<!DOCTYPE svg PUBLIC "-//W3C//DTD SVG 1.1//EN" "http://www.w3.org/Graphics/SVG/1.1/DTD/svg11.dtd">
<!-- Creator: CorelDRAW 2019 (64-Bit) -->
<svg xmlns="http://www.w3.org/2000/svg" xml:space="preserve" width="200px" height="200px" version="1.1" shape-rendering="geometricPrecision" text-rendering="geometricPrecision" image-rendering="optimizeQuality" fill-rule="evenodd" clip-rule="evenodd"
viewBox="0 0 200 200"
 xmlns:xlink="http://www.w3.org/1999/xlink"
 xmlns:xodm="http://www.corel.com/coreldraw/odm/2003">
 <g id="Capa_x0020_1">
  <metadata id="CorelCorpID_0Corel-Layer"/>
  <g id="_2677189510720">
   <polygon fill="#6F0375" fill-rule="nonzero" points="200,200 0,200 0,0 200,0 "/>
   <path fill="white" fill-rule="nonzero" d="M151.21 91.46c0.68,-1.05 2,-2.05 3.09,-1.14 0.65,0.55 0.8,2.33 0.45,3.29 -1.3,3.48 -4.15,5.28 -7.55,6.29 -0.23,-0.17 -0.47,-0.34 -0.7,-0.51 1.56,-2.65 3.05,-5.34 4.71,-7.93zm-6.37 17c0.24,-1.19 0.83,-1.73 2.16,-2 7.49,-1.54 13.3,-7.64 14.61,-15.1 0.83,-4.71 -1.91,-8.11 -6.68,-8.3 -2.61,-0.11 -4.91,0.7 -6.81,2.46 -7.54,6.96 -10.5,15.92 -11.28,25.78 0.17,1.65 0.26,3.22 0.52,4.75 0.92,5.36 5.08,8.06 10.32,6.73 4.46,-1.13 7.93,-3.82 11.04,-7.09 2.08,-2.18 2.32,-3.2 1.12,-5.9 -1.01,-2.27 -1.94,-2.3 -3.73,-0.53 -1.69,1.68 -3.54,3.26 -5.5,4.61 -1.45,1 -3.3,1.68 -4.93,0.42 -1.68,-1.3 -1.28,-3.26 -1.07,-5.08 0.03,-0.25 0.18,-0.49 0.23,-0.75zm-93.09 59.54c-0.91,1.08 -2.03,2.06 -3.24,2.78 -0.74,0.43 -2.16,0.69 -2.67,0.28 -0.64,-0.52 -1.07,-1.9 -0.86,-2.73 0.49,-1.93 1.21,-3.86 2.2,-5.59 3.22,-5.65 7.89,-9.74 14.31,-12.67 -2.55,6.82 -5.37,12.81 -9.74,17.93zm50.92 -68.35c-1.7,5.72 -3.56,11.39 -5.42,17.07 -0.24,0.71 -0.76,1.37 -1.28,1.94 -1.36,1.46 -3.36,1.29 -4.19,-0.52 -0.66,-1.44 -0.9,-3.07 -1.2,-4.18 0.75,-5.71 1.89,-10.7 5.91,-14.43 1.01,-0.95 2.34,-1.66 3.64,-2.15 1.62,-0.62 3.04,0.61 2.54,2.27zm15.18 15.78c1.38,-5.14 2.66,-10.32 4.31,-15.38 0.57,-1.76 1.94,-3.37 3.27,-4.73 1.58,-1.6 3.17,-1.04 3.72,1.13 0.29,1.12 0.35,2.3 0.44,2.95 -0.25,5.29 -1.64,9.76 -3.71,13.99 -1.21,2.48 -3.04,4.45 -6.22,4.17 -1.28,-0.11 -2.2,-0.66 -1.81,-2.13zm31.14 12.31c-7.15,0.54 -14.29,1.12 -21.43,1.8 -4.38,0.42 -8.74,1.05 -13.33,1.61 0.49,-3.2 0.93,-6.18 1.41,-9.38 0.62,0.44 0.93,0.67 1.24,0.89 4.41,3.12 8.62,2.71 12.21,-1.29 2.76,-3.08 4.24,-6.86 5.4,-10.75 1.84,-6.18 3.09,-12.44 1.37,-18.88 -1.49,-5.61 -6.94,-7.03 -11.15,-2.95 -0.84,0.81 -1.71,1.6 -2.44,2.3 -0.19,-0.66 -0.18,-1.6 -0.64,-2.06 -2.04,-2.02 -5.38,-1.01 -5.92,1.73 -1.56,7.87 -3.04,15.75 -4.67,23.6 -0.2,0.97 -1,1.92 -1.74,2.64 -0.49,0.48 -1.39,0.55 -2.1,0.8 -0.26,-0.78 -0.8,-1.58 -0.71,-2.31 0.32,-2.78 0.76,-5.56 1.31,-8.3 0.94,-4.8 2.03,-9.57 2.99,-14.36 0.34,-1.73 -0.37,-2.83 -2.2,-3.28 -2.6,-0.63 -3.06,-0.45 -4.74,2.56 -4.52,-2.67 -7.79,-2.21 -11.5,1.63 -3.16,3.26 -5.09,7.24 -6.59,11.45 -2.06,5.8 -3.16,11.72 -1.72,17.85 0.64,2.72 2.08,4.73 4.92,5.56 3.03,0.89 5.55,0.04 7.64,-2.18 0.92,-0.98 1.64,-2.16 2.52,-3.35 0.6,2.17 1.89,3.88 4.13,3.74 1.96,-0.12 3.86,-1.06 5.82,-1.64 -0.32,1.63 -0.8,3.33 -0.97,5.07 -0.14,1.56 -0.89,2.01 -2.33,2.22 -7.99,1.21 -15.97,2.51 -23.95,3.79 -2.54,0.41 -5.06,0.87 -7.88,1.36 1.16,-4.13 2.23,-7.88 3.27,-11.65 2.84,-10.23 5.72,-20.47 8.49,-30.72 0.72,-2.68 -0.4,-3.73 -3.09,-3.09 -3.17,0.76 -5.13,2.77 -6.23,5.88 -2.2,6.21 -4.45,12.4 -6.94,18.48 -0.71,1.73 -2.19,3.23 -3.6,4.53 -0.66,0.6 -2.27,0.92 -2.95,0.52 -0.69,-0.41 -1.09,-1.89 -1.01,-2.85 0.15,-1.87 0.67,-3.72 1.16,-5.54 1.01,-3.77 2.25,-7.49 3.12,-11.29 0.58,-2.49 -1.47,-4.46 -4.34,-4.6 -1.87,-0.09 -2.4,0.81 -2.54,3.73 -0.07,1.4 -0.39,2.83 -0.8,4.18 -0.63,2.05 -1.59,4.01 -2.14,6.08 -1.03,3.9 -2.08,7.82 -2.72,11.79 -0.47,2.92 0.16,5.85 2.93,7.59 2.79,1.75 5.54,1.02 8.02,-0.82 1.39,-1.03 2.65,-2.23 4.2,-3.55 -1.45,4.46 -2.78,8.67 -4.24,12.83 -0.22,0.6 -1.02,1.09 -1.66,1.44 -3.53,1.94 -7.29,3.54 -10.61,5.78 -7.52,5.07 -12.78,11.88 -14.65,20.96 -0.82,4 -0.09,7.61 3.24,10.24 3.44,2.71 7.19,2.27 10.88,0.48 3.57,-1.73 6.1,-4.64 8.47,-7.71 4.82,-6.26 7.6,-13.5 10.01,-20.9 0.46,-1.43 1.16,-2.12 2.61,-2.41 8.24,-1.65 16.47,-3.39 24.72,-5.04 2.72,-0.54 5.47,-0.92 8.36,-1.4 0.05,0.98 -0.1,1.7 0.15,2.24 0.46,0.99 0.98,2.38 1.81,2.67 0.82,0.29 2.3,-0.31 3.02,-1.01 0.84,-0.79 1.39,-2.07 1.65,-3.24 0.29,-1.26 0.9,-1.71 2.07,-1.86 7.5,-0.96 15.01,-1.93 22.51,-2.93 4.45,-0.59 8.92,-1.11 13.34,-1.92 2.28,-0.41 3.01,-2.4 2.11,-4.54 -0.67,-1.6 -1.95,-2.34 -3.57,-2.22z"/>
   <path fill="#00D2B5" fill-rule="nonzero" d="M125.08 41.81l-10.68 19.43c-0.34,0.62 -0.99,1.01 -1.69,1.01 -0.33,0 -0.65,-0.09 -0.93,-0.24 -0.94,-0.52 -1.28,-1.69 -0.77,-2.63l10.68 -19.43c0.52,-0.93 1.69,-1.27 2.63,-0.76l0 0c0.93,0.51 1.28,1.69 0.76,2.62zm-16.44 17.79c-0.7,1.2 -1.67,2.12 -2.89,2.75 -1.19,0.61 -2.64,0.93 -4.31,0.93 -2.6,0 -4.72,-0.78 -6.28,-2.32 -1.57,-1.54 -2.39,-3.64 -2.45,-6.24 0,-0.01 -0.05,-0.53 0.34,-0.97 0.3,-0.35 0.75,-0.53 1.34,-0.54 0.69,-0.01 1.24,0.14 1.57,0.47 0.26,0.26 0.35,0.58 0.34,0.78 0.12,1.14 0.4,2.08 0.82,2.73 0.41,0.64 1.02,1.16 1.8,1.56 0.79,0.4 1.7,0.6 2.71,0.6 1.42,0 2.53,-0.33 3.3,-0.98 0.74,-0.65 1.11,-1.46 1.11,-2.49 0,-0.6 -0.13,-1.1 -0.4,-1.54 -0.26,-0.43 -0.67,-0.79 -1.21,-1.08 -0.6,-0.31 -1.95,-0.77 -4.02,-1.37 -1.96,-0.56 -3.32,-1.12 -4.18,-1.71 -0.86,-0.6 -1.55,-1.37 -2.03,-2.29 -0.48,-0.92 -0.73,-1.96 -0.73,-3.12 0,-2.06 0.7,-3.77 2.08,-5.09 1.37,-1.31 3.23,-1.97 5.53,-1.97 1.56,0 2.96,0.3 4.14,0.91 1.21,0.62 2.15,1.52 2.82,2.67 0.66,1.14 1.01,2.49 1.06,4.02 0,0.04 0.03,0.6 -0.38,1.05 -0.21,0.23 -0.59,0.5 -1.27,0.52 -0.69,0.03 -1.23,-0.13 -1.59,-0.47 -0.37,-0.36 -0.4,-0.77 -0.4,-0.85 -0.12,-1.35 -0.54,-2.38 -1.24,-3.02 -0.71,-0.64 -1.74,-0.97 -3.06,-0.97 -1.35,0 -2.39,0.29 -3.06,0.85 -0.66,0.54 -0.98,1.23 -0.98,2.1 0,0.8 0.22,1.39 0.68,1.81 0.35,0.32 1.27,0.84 3.65,1.48 2.02,0.54 3.41,1 4.25,1.41l0 0c1.31,0.65 2.31,1.52 2.98,2.59 0.67,1.06 1.02,2.35 1.02,3.81 0,1.45 -0.36,2.78 -1.06,3.98zm-2.01 -38.61c-15.26,0 -27.62,12.37 -27.62,27.63 0,7.28 2.82,13.9 7.42,18.83l-0.65 11.71c-0.06,1.06 1.13,1.73 2.01,1.13l8.69 -5.98c3.14,1.24 6.57,1.93 10.15,1.93 15.26,0 27.62,-12.37 27.62,-27.62 0,-15.26 -12.36,-27.63 -27.62,-27.63z"/>
  </g>
 </g>
</svg>
